<!-- icon666.com - MILLIONS vector ICONS FREE --><svg id="Layer_1" enable-background="new 0 0 512.007 512.007" viewBox="0 0 512.007 512.007" xmlns="http://www.w3.org/2000/svg"><path d="m231.453 76.288-114.375-70.176c-26.8-16.439-60.543 5.925-55.913 36.974l22.362 149.939c1.837 12.316 16.391 17.814 25.927 10.047l123.733-100.738c8.518-6.937 7.686-20.265-1.734-26.046z" fill="#fdaa6a"></path><path d="m395.795 6.042-115.201 70.221c-9.411 5.737-10.343 19.093-1.774 26.07l123.733 100.739c9.562 7.781 24.034 2.225 25.915-9.969l23.119-149.851c4.799-31.105-28.955-53.567-55.792-37.21z" fill="#fdaa6a"></path><path d="m72.48 118.953 11.047 74.072c1.826 12.244 16.324 17.869 25.927 10.047l123.733-100.738c8.517-6.936 7.685-20.265-1.734-26.046l-59.891-36.746c-38.782 18.102-73.996 46.564-99.082 79.411z" fill="#f0a567"></path><path d="m428.468 193.104 11.376-73.735c-24.843-32.678-59.996-61.391-99.176-79.725l-60.074 36.619c-9.411 5.737-10.343 19.093-1.774 26.07l123.733 100.739c9.562 7.782 24.034 2.226 25.915-9.968z" fill="#f0a567"></path><path d="m256.004 297.9c-88.418 0-160.353 71.934-160.353 160.353v37.207c0 8.836 7.164 16 16 16h288.705c8.836 0 16-7.164 16-16v-37.207c0-88.419-71.934-160.353-160.352-160.353z" fill="#f9bf98"></path><path d="m416.111 449.448c-4.586-84.34-74.643-151.549-160.108-151.549s-155.52 67.21-160.107 151.549c94.212 60.434 223.07 62.316 320.215 0z" fill="#f9b78a"></path><path d="m406.024 401.634c-22.932-60.56-81.524-103.735-150.02-103.735s-127.088 43.175-150.02 103.735c119.393 92.821 180.479 92.951 300.04 0z" fill="#fdaa6a"></path><path d="m466.855 338.652c-14.123-116.167-13.801-113.523-13.825-113.697-12.488-89.875-89.604-161.522-197.026-161.522-107.314 0-184.526 71.56-197.026 161.521-.026.187.533-4.401-13.826 113.697-1.578 12.978 12.309 22.307 23.734 15.872 8.008-4.509 14.45-7.97 18.436-8.112 3.312-.161 8.363 2.119 16.227 7.237 43.834 48.677 65.956 85.19 152.456 85.19 86.522 0 108.637-36.556 152.557-85.302 9.135-6.303 12.679-7.19 14.934-7.105 4.068.06 10.604 3.184 19.83 8.204 11.394 6.207 25.098-3.082 23.529-15.983z" fill="#fdaa6a"></path><path d="m386.027 366.287c-8.808-24.914-28.37-61.627-53.934-70.747-26.814-9.567-48.786-28.813-61.867-54.193-5.946-11.534-22.492-11.547-28.444.001-12.909 25.045-34.546 44.17-60.927 53.852-26.166 9.603-44.799 48.082-52.894 74.379-1.67 5.434-.332 11.346 3.516 15.53 32.041 34.848 61.376 53.731 124.527 53.731 62.344 0 92.163-18.023 126.789-56.209 4.21-4.644 5.082-11.108 3.234-16.344z" fill="#f9f9f9"></path><g fill="#7f604b"><circle cx="194.229" cy="248.678" r="19.841"></circle><circle cx="317.779" cy="248.678" r="19.841"></circle><path d="m281.445 394.229c8.462 2.614 17.407-2.135 20.013-10.56 2.61-8.442-2.117-17.402-10.56-20.013l-22.015-6.808 12.185-17.625c6.203-8.972-.219-21.218-11.126-21.218h-27.877c-10.907 0-17.328 12.246-11.126 21.218l12.185 17.625-22.015 6.808c-8.442 2.61-13.17 11.57-10.56 20.013 2.611 8.441 11.569 13.17 20.013 10.56l25.441-7.867z"></path><path d="m496.02 317.568c-2.319 0 6.78 1.702-109.912-21.968-8.66-1.757-14.257-10.201-12.5-18.861 1.756-8.661 10.196-14.262 18.861-12.5l106.715 21.646c8.66 1.757 14.257 10.201 12.5 18.861-1.538 7.587-8.211 12.822-15.664 12.822z"></path><path d="m15.987 317.568c-7.454 0-14.125-5.235-15.664-12.822-1.757-8.66 3.84-17.104 12.5-18.861l106.715-21.646c8.666-1.755 17.105 3.841 18.861 12.5 1.757 8.66-3.84 17.104-12.5 18.861-115.95 23.519-107.588 21.968-109.912 21.968z"></path><path d="m371.766 249.136c-7.247 0-13.813-4.957-15.556-12.316-2.037-8.599 3.283-17.22 11.882-19.257l124.224-29.423c8.595-2.04 17.22 3.282 19.257 11.882 2.037 8.599-3.283 17.22-11.882 19.257-135.543 32.103-125.201 29.857-127.925 29.857z"></path><path d="m140.241 249.136c-2.695 0 7.965 2.329-127.925-29.857-8.599-2.037-13.918-10.658-11.882-19.257 2.037-8.598 10.658-13.918 19.257-11.882l124.224 29.423c8.599 2.037 13.918 10.658 11.882 19.257-1.743 7.358-8.309 12.316-15.556 12.316z"></path></g></svg>